<?xml version="1.0" standalone="no"?>
<!DOCTYPE svg PUBLIC "-//W3C//DTD SVG 20010904//EN"
 "http://www.w3.org/TR/2001/REC-SVG-20010904/DTD/svg10.dtd">
<svg version="1.0" xmlns="http://www.w3.org/2000/svg"
 width="225.000000pt" height="225.000000pt" viewBox="0 0 225.000000 225.000000"
 preserveAspectRatio="xMidYMid meet">
<metadata>
Created by potrace 1.14, written by Peter Selinger 2001-2017
</metadata>
<g transform="translate(0.000000,225.000000) scale(0.100000,-0.100000)"
fill="#000000" stroke="none">
<path d="M990 2239 c-448 -52 -824 -379 -947 -824 -26 -93 -28 -112 -27 -290
0 -173 2 -199 26 -287 113 -416 439 -722 868 -814 103 -22 310 -22 423 0 261
50 496 192 662 399 86 107 177 289 211 422 32 124 42 313 25 435 -75 512 -476
903 -984 959 -108 12 -149 12 -257 0z m186 -330 c27 -7 59 -26 82 -48 21 -20
29 -28 18 -19 -77 63 -183 63 -249 0 -42 -39 -57 -75 -57 -132 0 -101 61 -170
156 -178 70 -6 96 2 141 40 l38 32 -34 -37 c-89 -95 -240 -85 -315 21 -31 44
-44 113 -32 175 10 52 78 124 134 141 59 18 63 18 118 5z m134 -1054 l0 -515
-187 2 -188 3 -3 500 c-1 275 0 506 3 513 3 9 51 12 190 12 l185 0 0 -515z"/>
</g>
</svg>
